<svg id="svg" xmlns="http://www.w3.org/2000/svg" xmlns:xlink="http://www.w3.org/1999/xlink" width="400" height="153.34114888628372" viewBox="0, 0, 400,153.34114888628372"><g id="svgg"><path id="path0" d="M111.372 4.288 C 95.028 4.990,86.017 11.530,80.126 26.964 C 79.030 29.837,78.942 30.111,78.839 30.977 C 78.807 31.250,78.517 31.315,78.195 31.122 C 77.729 30.842,77.727 30.916,78.184 31.481 C 78.593 31.987,78.642 32.793,78.353 34.268 C 77.978 36.180,77.942 36.220,77.894 34.784 C 77.410 20.115,67.655 7.432,55.131 5.188 C 52.533 4.722,44.080 4.475,44.080 4.865 C 44.080 4.961,44.395 5.933,44.780 7.025 C 45.165 8.117,45.364 9.198,45.221 9.429 C 45.079 9.659,45.156 9.848,45.394 9.848 C 45.631 9.848,46.288 11.061,46.854 12.544 C 47.419 14.027,48.715 16.571,49.732 18.198 C 50.750 19.825,51.583 21.232,51.583 21.325 C 51.583 23.084,59.996 29.039,65.547 31.208 C 72.611 33.969,74.125 36.124,75.029 44.704 C 75.634 50.446,75.634 59.553,75.029 58.617 C 74.756 58.194,74.572 58.136,74.568 58.472 C 74.564 58.779,74.775 59.163,75.037 59.325 C 75.299 59.487,75.424 59.763,75.315 59.939 C 75.206 60.114,76.239 60.187,77.612 60.100 L 80.107 59.941 80.298 50.252 C 80.498 40.085,81.091 36.742,82.671 36.870 C 83.074 36.903,83.296 36.667,83.170 36.340 C 83.046 36.017,83.512 35.305,84.206 34.759 C 85.502 33.740,85.871 33.623,93.083 31.942 C 97.516 30.910,104.312 27.869,106.100 26.119 C 106.679 25.552,107.786 24.556,108.559 23.906 C 111.506 21.429,114.826 15.803,117.208 9.248 C 119.255 3.615,119.630 3.933,111.372 4.288 M96.131 17.048 C 96.131 17.459,90.219 21.316,89.801 21.178 C 89.543 21.093,89.483 21.175,89.667 21.359 C 89.851 21.543,88.902 22.911,87.557 24.398 C 86.212 25.885,84.373 28.493,83.470 30.194 C 80.945 34.952,80.122 34.222,82.472 29.308 C 84.821 24.400,96.131 14.248,96.131 17.048 M67.090 19.718 C 67.852 20.261,68.335 20.932,68.163 21.210 C 67.991 21.488,68.063 21.584,68.324 21.423 C 68.584 21.263,69.302 21.686,69.920 22.364 C 70.538 23.043,70.727 23.440,70.340 23.247 C 69.953 23.054,70.164 23.332,70.809 23.864 C 71.454 24.397,71.770 24.841,71.512 24.850 C 71.245 24.860,71.268 25.016,71.567 25.212 C 72.433 25.783,73.976 29.189,74.709 32.150 C 75.496 35.327,76.034 38.676,75.705 38.347 C 75.440 38.082,73.998 32.839,73.961 32.005 C 73.947 31.682,73.782 31.419,73.595 31.419 C 73.321 31.419,72.670 29.757,72.488 28.594 C 72.413 28.110,68.064 22.212,67.339 21.610 C 66.932 21.272,66.736 20.756,66.903 20.463 C 67.071 20.170,67.039 20.082,66.833 20.268 C 66.627 20.455,65.883 20.138,65.179 19.565 C 64.476 18.992,63.503 18.259,63.017 17.937 C 62.477 17.578,62.827 17.619,63.919 18.042 C 64.901 18.421,66.328 19.176,67.090 19.718 M232.356 59.397 C 230.809 59.783,229.327 60.140,229.064 60.190 C 223.956 61.165,216.201 71.256,218.499 73.936 C 219.142 74.686,219.970 78.336,219.627 78.908 C 219.358 79.356,219.440 79.355,220.000 78.902 C 220.396 78.582,220.830 78.430,220.964 78.565 C 221.912 79.513,223.026 79.069,223.131 77.702 C 223.381 74.421,226.505 67.057,227.647 67.057 C 227.897 67.057,226.915 69.477,226.504 69.871 C 226.370 70.000,226.228 70.422,226.189 70.809 C 226.150 71.196,225.569 72.989,224.899 74.793 C 223.171 79.447,223.163 79.427,226.495 79.125 C 233.251 78.512,237.959 71.651,237.761 62.705 C 237.745 61.988,237.950 60.994,238.215 60.497 C 239.196 58.664,236.969 58.246,232.356 59.397 M294.638 60.375 C 294.778 61.084,294.960 62.081,295.043 62.590 C 295.332 64.370,297.586 66.613,300.950 68.470 C 302.168 69.143,303.113 69.944,303.048 70.251 C 302.984 70.558,303.195 70.756,303.517 70.692 C 303.839 70.627,304.045 70.854,303.974 71.195 C 303.903 71.537,304.066 71.680,304.336 71.513 C 304.866 71.186,306.374 74.313,306.093 75.156 C 306.000 75.436,305.470 74.930,304.915 74.033 C 303.686 72.044,301.092 69.626,299.721 69.191 C 299.165 69.014,298.710 68.673,298.710 68.433 C 298.710 68.192,298.552 68.035,298.359 68.083 C 298.165 68.131,296.947 68.012,295.651 67.819 C 289.912 66.963,262.744 67.345,261.582 68.297 C 260.164 69.460,260.281 67.606,260.247 89.355 C 260.214 110.714,260.141 110.222,263.506 111.128 C 264.721 111.455,273.663 111.581,289.754 111.498 L 314.160 111.372 315.196 110.335 C 316.484 109.047,316.923 104.602,316.064 101.536 C 315.280 98.733,315.755 98.792,293.914 98.813 C 277.753 98.828,275.205 98.736,274.688 98.113 C 273.938 97.212,273.588 81.255,274.294 80.188 C 274.689 79.590,277.427 79.449,292.479 79.250 L 310.199 79.015 312.392 77.726 C 316.144 75.520,318.846 71.122,319.045 66.895 L 319.118 65.333 316.642 65.233 C 313.588 65.109,310.898 66.470,309.663 68.763 C 308.733 70.491,308.092 70.798,308.085 69.519 C 308.065 66.032,304.223 61.863,299.347 60.039 C 295.617 58.643,294.315 58.736,294.638 60.375 M395.714 59.517 C 395.608 59.836,393.854 60.411,391.816 60.796 C 384.755 62.129,378.617 66.438,377.580 70.788 C 377.228 72.263,377.425 76.711,377.896 77.929 C 378.254 78.855,378.234 79.254,377.819 79.439 C 377.477 79.593,377.532 79.668,377.960 79.631 C 378.347 79.598,379.047 79.738,379.516 79.941 C 380.728 80.469,381.198 79.796,381.991 76.398 C 382.678 73.452,385.120 68.933,386.025 68.933 C 386.281 68.933,385.971 69.830,385.338 70.926 C 384.396 72.554,383.332 75.406,381.956 79.986 C 381.784 80.559,386.374 80.062,388.412 79.287 C 392.171 77.858,395.668 72.081,396.098 66.589 C 396.209 65.170,396.466 63.482,396.669 62.837 C 396.892 62.132,396.813 61.122,396.473 60.301 C 396.162 59.552,395.820 59.199,395.714 59.517 M148.823 62.236 C 148.395 62.550,147.878 62.704,147.673 62.577 C 147.097 62.221,147.105 61.788,146.967 102.195 C 146.895 123.197,146.785 141.356,146.722 142.548 C 146.658 143.740,146.763 144.968,146.953 145.277 C 147.144 145.586,147.130 145.848,146.921 145.859 C 146.712 145.870,147.306 146.283,148.240 146.777 C 151.497 148.498,158.695 148.097,160.352 146.101 C 161.479 144.742,161.134 64.856,159.993 63.324 C 158.947 61.919,150.390 61.085,148.823 62.236 M125.993 63.291 C 119.842 65.256,117.048 68.415,115.610 75.029 L 115.050 77.608 114.686 76.032 C 113.805 72.213,108.155 68.421,104.398 69.125 C 98.454 70.240,100.927 76.803,108.214 79.252 C 111.863 80.478,114.257 81.862,111.841 81.347 C 111.067 81.183,109.801 80.846,109.027 80.600 C 105.756 79.559,101.880 79.567,100.178 80.619 C 96.621 82.817,92.420 89.438,91.674 94.021 C 91.506 95.053,91.253 96.213,91.111 96.600 C 90.596 98.002,90.187 111.168,90.634 111.922 C 90.761 112.135,91.018 113.259,91.204 114.420 C 91.749 117.806,94.097 123.367,96.088 125.984 C 97.101 127.315,98.165 128.845,98.454 129.384 C 98.742 129.923,99.183 130.363,99.434 130.363 C 99.685 130.363,100.755 130.990,101.812 131.755 C 110.307 137.909,125.029 136.398,132.299 128.626 C 140.600 119.751,142.812 101.639,137.069 89.566 C 136.394 88.148,135.875 86.829,135.916 86.635 C 135.957 86.442,135.780 86.284,135.522 86.284 C 135.264 86.284,135.053 86.048,135.053 85.761 C 135.053 85.027,130.363 80.633,129.046 80.132 C 127.379 79.499,124.702 79.637,121.891 80.503 C 115.738 82.397,117.551 80.973,124.356 78.565 C 128.691 77.032,131.103 73.300,131.606 67.349 C 132.048 62.116,131.319 61.589,125.993 63.291 M65.182 63.827 C 61.622 64.170,60.492 64.565,60.492 65.466 C 60.492 65.826,60.334 66.120,60.141 66.119 C 59.947 66.119,59.894 84.179,60.023 106.251 C 60.297 153.060,59.409 147.714,66.913 147.714 C 74.281 147.714,73.623 149.918,73.623 125.249 L 73.623 104.660 77.815 104.615 C 84.572 104.543,85.346 103.918,85.346 98.529 C 85.346 92.969,84.000 91.674,78.788 92.219 C 77.286 92.376,75.509 92.367,74.840 92.199 L 73.623 91.893 73.623 78.548 L 73.623 65.203 72.509 64.474 C 71.178 63.602,69.275 63.434,65.182 63.827 M13.268 66.638 C 2.988 67.109,3.797 64.566,3.700 96.713 C 3.609 126.581,3.685 127.082,8.394 127.877 C 12.255 128.528,44.945 128.109,46.307 127.391 C 47.145 126.949,47.831 126.714,47.831 126.868 C 47.831 127.646,49.170 125.659,49.673 124.136 C 50.282 122.290,50.476 73.595,49.886 70.449 C 49.412 67.918,48.024 67.228,42.571 66.815 C 36.282 66.339,32.825 66.281,32.825 66.654 C 32.825 67.108,31.229 66.885,30.866 66.381 C 30.670 66.108,30.114 66.136,29.416 66.454 C 28.734 66.765,28.021 66.805,27.624 66.555 C 27.261 66.327,26.647 66.236,26.260 66.352 C 24.916 66.756,19.952 67.005,19.707 66.680 C 19.572 66.501,16.674 66.482,13.268 66.638 M339.076 66.496 C 339.049 66.940,338.234 67.081,336.092 67.012 C 330.036 66.816,330.094 66.641,330.078 85.018 C 330.059 108.743,329.658 108.225,347.624 107.652 C 358.633 107.300,359.765 107.214,366.385 106.221 C 368.916 105.841,371.132 105.559,371.308 105.595 C 371.660 105.665,372.592 105.343,375.255 104.231 C 379.758 102.349,377.636 91.100,373.103 92.823 C 372.451 93.071,370.903 93.383,369.663 93.516 C 368.424 93.649,366.038 93.954,364.361 94.193 C 360.240 94.780,360.259 94.778,357.327 94.960 C 355.909 95.048,354.287 95.227,353.724 95.358 C 351.293 95.924,345.684 95.844,344.949 95.233 C 344.293 94.689,344.197 92.977,344.197 81.771 C 344.197 67.494,344.101 67.057,340.953 67.057 C 340.201 67.057,339.479 66.794,339.349 66.471 C 339.167 66.019,339.104 66.024,339.076 66.496 M174.692 68.342 C 173.194 69.126,172.479 71.543,172.612 75.370 C 172.775 80.064,172.312 79.908,186.870 80.188 L 199.062 80.422 198.895 83.622 C 198.802 85.382,198.427 88.020,198.061 89.484 C 197.694 90.948,197.275 92.778,197.128 93.552 C 196.982 94.326,196.532 95.698,196.129 96.600 C 195.725 97.503,195.376 98.368,195.353 98.524 C 195.072 100.392,190.923 106.380,187.573 109.752 C 183.804 113.547,181.715 115.113,174.960 119.209 C 170.435 121.953,170.328 123.232,174.194 128.370 C 177.310 132.513,178.060 132.451,186.166 127.378 C 195.130 121.770,201.881 114.882,205.876 107.270 C 207.887 103.440,211.489 93.140,211.489 91.221 C 211.489 90.599,211.703 89.958,211.965 89.796 C 212.228 89.634,212.344 89.342,212.224 89.148 C 212.104 88.954,212.206 87.439,212.452 85.781 C 213.871 76.194,213.442 69.516,211.334 68.376 C 209.842 67.568,176.228 67.538,174.692 68.342 M235.009 77.925 C 233.693 78.767,233.365 78.822,232.972 78.268 C 232.594 77.737,232.551 77.761,232.751 78.390 C 233.062 79.366,230.111 80.653,227.540 80.663 C 226.578 80.666,225.317 80.797,224.736 80.952 L 223.681 81.235 223.681 113.447 C 223.681 140.495,223.788 145.805,224.345 146.569 C 225.402 148.017,234.486 148.346,236.174 146.998 L 237.364 146.047 237.370 125.326 C 237.374 113.929,237.513 104.622,237.680 104.644 C 245.966 105.721,249.004 104.092,249.004 98.570 C 249.004 93.580,248.772 93.392,242.421 93.218 L 237.515 93.083 237.462 86.284 C 237.378 75.548,237.591 76.272,235.009 77.925 M393.593 78.108 C 393.110 79.366,388.877 81.148,385.659 81.449 C 383.987 81.605,382.507 81.915,382.369 82.138 C 382.021 82.700,382.066 109.824,382.416 110.736 C 382.988 112.227,393.802 112.377,395.266 110.915 C 396.026 110.156,396.855 83.876,396.249 79.772 C 395.982 77.968,394.099 76.788,393.593 78.108 M20.664 79.266 C 21.207 79.557,21.571 79.573,21.571 79.307 C 21.571 78.810,34.097 78.578,35.332 79.052 C 35.756 79.215,35.986 79.537,35.843 79.768 C 35.700 79.999,35.791 80.188,36.044 80.188 C 36.681 80.188,36.715 113.285,36.080 114.472 C 35.277 115.972,19.078 115.815,18.084 114.297 C 16.810 112.353,17.145 80.384,18.449 79.471 C 19.623 78.649,19.527 78.658,20.664 79.266 M395.272 78.934 C 394.492 79.544,391.559 81.157,391.559 80.975 C 391.559 80.657,394.515 78.798,395.037 78.789 C 395.274 78.784,395.379 78.850,395.272 78.934 M119.610 87.723 C 122.017 88.927,124.455 91.835,125.723 95.015 C 127.818 100.266,126.984 118.171,124.644 118.171 C 124.437 118.171,124.267 118.446,124.267 118.783 C 124.267 120.751,118.883 123.801,115.416 123.796 C 113.218 123.792,110.199 122.951,110.199 122.342 C 110.199 122.081,110.007 121.986,109.772 122.131 C 109.018 122.597,105.696 118.301,104.824 115.733 C 103.752 112.573,103.318 100.628,104.131 96.680 C 105.860 88.290,112.761 84.297,119.610 87.723 M5.033 94.842 C 4.934 95.938,4.853 95.041,4.853 92.849 C 4.853 90.657,4.934 89.760,5.033 90.856 C 5.131 91.952,5.131 93.746,5.033 94.842 M148.056 98.817 C 147.955 99.790,147.870 99.109,147.868 97.304 C 147.866 95.498,147.949 94.702,148.052 95.535 C 148.156 96.367,148.158 97.844,148.056 98.817 M224.481 99.062 C 224.369 99.642,224.278 99.168,224.278 98.007 C 224.278 96.846,224.369 96.372,224.481 96.952 C 224.593 97.532,224.593 98.482,224.481 99.062 M395.189 104.202 C 395.098 105.824,395.022 104.619,395.021 101.524 C 395.020 98.429,395.095 97.102,395.188 98.575 C 395.280 100.048,395.281 102.580,395.189 104.202 M331.398 100.938 C 331.286 101.518,331.195 101.043,331.195 99.883 C 331.195 98.722,331.286 98.247,331.398 98.828 C 331.510 99.408,331.510 100.358,331.398 100.938 M5.021 100.932 C 4.909 101.516,4.813 101.149,4.808 100.117 C 4.802 99.086,4.894 98.608,5.012 99.057 C 5.129 99.505,5.133 100.349,5.021 100.932 M5.032 106.789 C 4.930 107.762,4.845 107.081,4.843 105.275 C 4.841 103.470,4.924 102.674,5.028 103.507 C 5.131 104.339,5.133 105.816,5.032 106.789 M148.053 107.972 C 147.949 108.810,147.864 108.124,147.864 106.448 C 147.864 104.771,147.949 104.086,148.053 104.924 C 148.157 105.762,148.157 107.134,148.053 107.972 M276.566 110.540 C 275.605 110.641,273.917 110.642,272.814 110.543 C 271.711 110.444,272.497 110.362,274.560 110.360 C 276.624 110.358,277.526 110.439,276.566 110.540 M309.848 110.523 C 309.396 110.640,308.658 110.640,308.206 110.523 C 307.755 110.405,308.124 110.308,309.027 110.308 C 309.930 110.308,310.299 110.405,309.848 110.523 M358.734 112.519 C 356.542 112.983,354.608 113.282,354.436 113.185 C 354.265 113.087,354.054 113.167,353.967 113.362 C 353.881 113.557,352.438 114.401,350.762 115.239 C 345.702 117.766,343.772 119.507,341.556 123.546 C 340.104 126.191,339.512 131.653,340.347 134.680 C 340.696 135.942,340.679 136.471,340.284 136.633 C 339.986 136.755,340.086 136.871,340.506 136.891 C 340.926 136.912,341.520 137.534,341.827 138.274 C 342.133 139.014,343.092 140.305,343.957 141.144 C 344.823 141.983,345.476 142.907,345.410 143.199 C 345.343 143.490,345.376 143.572,345.484 143.381 C 345.591 143.190,346.348 143.535,347.165 144.148 C 357.793 152.113,379.164 151.117,388.787 142.208 C 397.832 133.834,395.302 121.414,383.318 115.358 C 381.532 114.455,379.965 113.611,379.836 113.482 C 379.707 113.353,379.390 113.212,379.132 113.170 C 378.875 113.127,376.899 112.758,374.743 112.349 C 369.698 111.393,363.760 111.456,358.734 112.519 M375.788 124.639 C 377.925 125.638,379.167 126.562,379.823 127.637 C 380.897 129.399,381.110 131.090,380.188 130.536 C 379.789 130.296,379.807 130.437,380.245 130.976 C 381.719 132.794,378.857 136.139,374.612 137.561 C 363.003 141.447,349.529 134.349,354.851 127.150 C 358.052 122.820,369.077 121.498,375.788 124.639 M258.280 124.736 C 251.286 125.035,251.199 125.106,250.879 130.863 C 250.639 135.196,251.457 137.357,253.360 137.414 C 270.228 137.920,322.572 137.258,323.564 136.526 C 325.798 134.879,325.660 126.924,323.372 125.425 C 322.252 124.691,271.842 124.158,258.280 124.736 M150.293 146.437 C 151.184 146.656,151.181 146.670,150.233 146.722 C 149.685 146.752,148.946 146.407,148.592 145.955 C 148.032 145.242,148.040 145.205,148.652 145.671 C 149.039 145.965,149.777 146.310,150.293 146.437 " stroke="none" fill="currentColor" fill-rule="evenodd"></path></g></svg>