<svg id="svg" version="1.1" xmlns="http://www.w3.org/2000/svg" xmlns:xlink="http://www.w3.org/1999/xlink" width="400" height="157.7889447236181" viewBox="0, 0, 400,157.7889447236181"><g id="svgg"><path id="path0" d="M47.907 5.855 C 45.496 6.207,45.579 6.819,49.011 13.949 C 55.210 26.829,58.757 30.284,71.220 35.585 C 76.592 37.869,77.387 40.177,77.387 53.493 L 77.387 62.862 80.528 62.712 L 83.668 62.563 83.941 52.513 C 84.326 38.319,84.307 38.352,93.653 35.803 C 104.292 32.902,109.914 29.683,114.092 24.100 C 116.085 21.436,120.101 13.746,120.101 12.592 C 120.101 12.278,120.553 11.134,121.106 10.050 C 123.277 5.794,122.002 5.186,111.868 5.648 C 98.659 6.250,90.769 11.466,84.576 23.690 C 83.266 26.276,81.961 28.558,81.675 28.761 C 81.351 28.992,81.415 29.133,81.845 29.138 C 82.378 29.144,82.403 29.305,81.953 29.847 C 81.634 30.232,81.406 30.741,81.449 30.977 C 81.609 31.869,81.392 32.663,80.988 32.663 C 80.758 32.663,80.559 32.381,80.546 32.035 C 79.916 15.196,65.138 3.342,47.907 5.855 M149.749 63.819 C 148.207 65.360,148.165 146.409,149.704 148.311 C 150.950 149.850,158.418 150.339,161.433 149.080 C 163.976 148.017,163.878 149.918,163.714 104.855 L 163.568 64.735 162.382 63.775 C 160.586 62.321,151.214 62.354,149.749 63.819 M225.213 63.977 L 224.121 65.140 224.121 106.188 C 224.121 146.174,224.146 147.261,225.098 148.213 C 226.366 149.482,228.758 149.904,233.368 149.671 C 239.625 149.355,239.162 151.085,239.316 127.440 L 239.447 107.286 244.048 107.030 C 250.422 106.676,250.754 106.337,250.754 100.173 C 250.754 93.900,250.355 93.467,244.573 93.467 C 238.820 93.467,239.197 94.503,239.188 78.668 C 239.184 71.192,239.014 64.827,238.811 64.522 C 237.383 62.383,227.098 61.970,225.213 63.977 M382.613 63.199 C 380.881 64.355,380.814 65.551,381.131 89.590 C 381.340 105.446,381.623 113.474,381.989 113.915 C 382.664 114.728,393.531 114.843,395.008 114.053 C 395.949 113.549,395.980 112.740,395.980 88.956 L 395.980 64.379 394.863 63.596 C 393.677 62.766,383.744 62.443,382.613 63.199 M65.963 65.229 C 62.066 65.512,62.312 62.694,62.312 107.119 L 62.312 146.678 63.524 148.088 C 64.711 149.467,64.852 149.497,70.043 149.497 C 78.136 149.497,77.667 150.515,77.518 133.277 C 77.451 125.615,77.531 116.351,77.695 112.688 L 77.992 106.030 82.686 106.030 C 88.666 106.030,88.945 105.733,88.945 99.363 C 88.945 93.203,88.224 92.462,82.231 92.462 L 77.983 92.462 77.665 87.814 C 77.490 85.258,77.413 79.611,77.493 75.266 C 77.682 64.982,77.044 64.427,65.963 65.229 M111.809 68.020 C 98.720 71.457,91.799 84.843,93.195 104.020 C 94.872 127.064,112.483 138.790,130.774 129.041 C 147.369 120.196,148.077 82.331,131.854 71.224 C 127.067 67.947,117.755 66.458,111.809 68.020 M8.701 68.881 C 6.476 70.307,6.432 70.956,6.622 99.749 C 6.840 132.816,4.300 129.626,30.402 129.626 C 56.655 129.626,53.976 133.176,54.163 98.137 C 54.317 69.091,54.377 69.760,51.483 68.550 C 48.379 67.254,10.788 67.544,8.701 68.881 M331.690 68.475 C 329.747 69.459,329.541 71.568,329.762 88.190 C 330.016 107.195,330.314 108.269,335.686 109.506 C 342.931 111.176,374.820 108.267,376.912 105.745 C 377.656 104.850,377.640 98.785,376.887 95.989 C 376.246 93.611,374.673 92.684,372.609 93.469 C 370.690 94.198,358.218 95.879,352.128 96.228 C 344.688 96.655,345.226 97.693,345.226 82.917 C 345.226 71.017,345.018 69.225,343.518 68.224 C 342.581 67.598,333.019 67.801,331.690 68.475 M262.814 68.990 C 260.571 70.122,260.359 71.894,260.342 89.698 C 260.324 107.937,260.514 109.639,262.795 111.683 L 264.337 113.065 289.880 113.065 C 315.018 113.065,315.437 113.049,316.357 112.032 C 318.248 109.942,317.762 101.189,315.698 100.177 C 315.217 99.942,306.005 99.636,295.226 99.497 L 275.628 99.246 275.628 90.452 L 275.628 81.658 295.145 81.407 L 314.663 81.156 315.623 79.969 C 317.701 77.401,316.805 70.298,314.229 68.926 C 312.592 68.055,264.550 68.115,262.814 68.990 M176.062 69.432 C 173.655 70.598,172.885 78.010,174.904 80.577 L 175.938 81.892 188.067 82.026 L 200.195 82.161 200.067 85.176 C 199.451 99.627,190.054 113.181,175.562 120.517 C 172.074 122.282,172.353 124.924,176.643 130.769 C 179.726 134.970,182.538 134.271,192.461 126.838 C 207.706 115.418,213.991 103.177,215.677 81.616 C 216.691 68.652,217.001 68.834,193.970 68.879 C 183.473 68.900,176.732 69.108,176.062 69.432 M38.575 81.323 C 39.070 81.638,39.180 85.470,39.077 98.778 L 38.945 115.829 30.402 115.829 L 21.859 115.829 21.727 99.163 C 21.611 84.507,21.691 82.401,22.391 81.701 C 23.262 80.829,37.281 80.502,38.575 81.323 M122.909 82.664 C 130.801 88.683,130.574 111.506,122.570 116.803 C 116.468 120.841,109.950 116.301,108.501 107.002 C 105.744 89.324,113.801 75.716,122.909 82.664 M363.065 112.404 C 361.960 112.501,359.419 112.930,357.419 113.358 C 355.420 113.786,353.666 114.118,353.522 114.097 C 351.107 113.742,342.806 120.511,340.997 124.309 C 333.048 141.007,354.135 155.760,377.434 149.801 C 396.950 144.810,400.884 125.453,384.276 116.138 C 381.051 114.329,368.580 111.669,365.578 112.149 C 365.302 112.193,364.171 112.308,363.065 112.404 M374.894 126.282 C 384.424 130.455,379.411 138.495,367.337 138.402 C 357.040 138.322,351.444 132.771,356.703 127.853 C 359.595 125.148,370.212 124.231,374.894 126.282 M252.580 126.670 C 250.630 128.204,250.568 135.538,252.490 137.460 L 253.723 138.693 288.827 138.693 C 323.396 138.693,323.948 138.678,325.025 137.675 C 327.199 135.649,327.294 128.288,325.167 126.566 C 323.258 125.020,254.553 125.118,252.580 126.670 " stroke="none" fill="currentColor" fill-rule="evenodd"></path></g></svg>